# Created by Open3D 
# object name: t
# number of vertices: 48
# number of triangles: 28
v 0 -0.01 0.01
vn -1 0 -0
v 0 0 0.01
vn -1 0 0
v 0 -0.01 0
vn -1 0 0
v 0 0 0
vn -1 0 0
v 0.025 -0.01 0.01
vn 0 -1 0
v 0 -0.01 0.01
vn 0 -1 0
v 0.025 -0.01 0
vn 0 -1 0
v 0 -0.01 0
vn 0 -1 0
v 0.025 -0.07 0.01
vn -1 0 -0
v 0.025 -0.01 0.01
vn -1 0 0
v 0.025 -0.07 0
vn -1 0 0
v 0.025 -0.01 0
vn -1 0 0
v 0.035 -0.07 0.01
vn 0 -1 0
v 0.025 -0.07 0.01
vn 0 -1 0
v 0.035 -0.07 0
vn 0 -1 0
v 0.025 -0.07 0
vn 0 -1 0
v 0.035 -0.01 0.01
vn 1 0 0
v 0.035 -0.07 0.01
vn 1 0 0
v 0.035 -0.01 0
vn 1 0 0
v 0.035 -0.07 0
vn 1 0 0
v 0.06 -0.01 0.01
vn 0 -1 0
v 0.035 -0.01 0.01
vn 0 -1 0
v 0.06 -0.01 0
vn 0 -1 0
v 0.035 -0.01 0
vn 0 -1 0
v 0.06 0 0.01
vn 1 0 0
v 0.06 -0.01 0.01
vn 1 0 0
v 0.06 0 0
vn 1 0 0
v 0.06 -0.01 0
vn 1 0 0
v 0 0 0.01
vn 0 1 0
v 0.06 0 0.01
vn 0 1 0
v 0 0 0
vn 0 1 0
v 0.06 0 0
vn 0 1 0
v 0.06 0 0.01
vn 0 0 1
v 0 0 0.01
vn 0 0 1
v 0.025 -0.01 0.01
vn 0 0 1
v 0 -0.01 0.01
vn 0 0 1
v 0.06 -0.01 0.01
vn 0 0 1
v 0.035 -0.01 0.01
vn 0 0 1
v 0.035 -0.07 0.01
vn 0 0 1
v 0.025 -0.07 0.01
vn 0 0 1
v 0 0 0
vn 0 0 -1
v 0.06 0 0
vn 0 0 -1
v 0.035 -0.01 0
vn 0 0 -1
v 0.06 -0.01 0
vn 0 0 -1
v 0 -0.01 0
vn 0 0 -1
v 0.025 -0.01 0
vn 0 0 -1
v 0.025 -0.07 0
vn 0 0 -1
v 0.035 -0.07 0
vn 0 0 -1
f 1//1 2//2 3//3
f 3//3 2//2 4//4
f 5//5 6//6 7//7
f 7//7 6//6 8//8
f 9//9 10//10 11//11
f 11//11 10//10 12//12
f 13//13 14//14 15//15
f 15//15 14//14 16//16
f 17//17 18//18 19//19
f 19//19 18//18 20//20
f 21//21 22//22 23//23
f 23//23 22//22 24//24
f 25//25 26//26 27//27
f 27//27 26//26 28//28
f 29//29 30//30 31//31
f 31//31 30//30 32//32
f 33//33 34//34 35//35
f 35//35 34//34 36//36
f 37//37 33//33 38//38
f 38//38 33//33 35//35
f 38//38 35//35 39//39
f 39//39 35//35 40//40
f 41//41 42//42 43//43
f 43//43 42//42 44//44
f 45//45 41//41 46//46
f 46//46 41//41 43//43
f 46//46 43//43 47//47
f 47//47 43//43 48//48
