# Blender v2.82 (sub 7) OBJ File: 'T-mesh.blend'
# www.blender.org
mtllib T-mesh.mtl
o boxT
v 0.075000 -0.120000 0.030000
v 0.045000 -0.120000 0.030000
v 0.075000 -0.120000 -0.000000
v 0.045000 -0.120000 0.000000
v 0.075000 -0.030000 0.030000
v 0.075000 -0.030000 -0.000000
v 0.075000 -0.120000 -0.000000
v 0.120000 -0.030000 0.030000
v 0.120000 -0.030000 0.000000
v 0.120000 0.000000 0.030000
v 0.120000 0.000000 0.000000
v 0.120000 -0.030000 0.000000
v -0.000000 -0.000000 0.030000
v 0.120000 0.000000 0.030000
v -0.000000 -0.000000 -0.000000
v 0.120000 0.000000 0.000000
v -0.000000 -0.030000 0.030000
v -0.000000 -0.000000 0.030000
v -0.000000 -0.030000 -0.000000
v -0.000000 -0.000000 -0.000000
v 0.045000 -0.030000 0.030000
v 0.045000 -0.030000 0.000000
v 0.045000 -0.120000 0.000000
v 0.045000 -0.030000 0.000000
v -0.000000 -0.030000 -0.000000
v 0.075000 -0.030000 -0.000000
vn 1.0000 0.0000 0.0000
vn 0.0000 -1.0000 0.0000
vn -0.0000 1.0000 -0.0000
vn -1.0000 0.0000 0.0000
vn 0.0000 -0.0000 1.0000
vn -0.0000 -0.0000 -1.0000
usemtl None
s off
f 7//1 5//1 1//1
f 6//2 8//2 5//2
f 12//1 10//1 8//1
f 16//3 13//3 14//3
f 20//4 17//4 18//4
f 19//2 21//2 17//2
f 22//4 2//4 21//4
f 20//4 19//4 17//4
f 21//5 1//5 5//5
f 21//5 2//5 1//5
f 22//4 23//4 2//4
f 19//2 22//2 21//2
f 24//6 15//6 26//6
f 13//5 17//5 21//5
f 14//5 13//5 21//5
f 5//5 8//5 14//5
f 26//6 3//6 24//6
f 16//6 12//6 26//6
f 15//6 16//6 26//6
f 24//6 25//6 15//6
f 3//6 4//6 24//6
f 4//2 3//2 1//2
f 7//1 6//1 5//1
f 6//2 9//2 8//2
f 16//3 15//3 13//3
f 12//1 11//1 10//1
f 5//5 14//5 21//5
f 4//2 1//2 2//2
